<?xml version="1.0" encoding="iso-8859-1"?>
<!-- Uploaded to: SVG Repo, www.svgrepo.com, Generator: SVG Repo Mixer Tools -->
<svg height="800px" width="800px" version="1.1" id="Layer_1" xmlns="http://www.w3.org/2000/svg" xmlns:xlink="http://www.w3.org/1999/xlink" 
	 viewBox="0 0 480 480" xml:space="preserve">
<path style="fill:#132C47;" d="M384,328h-32c-4.4,0-8-3.6-8-8s3.6-8,8-8h32c4.4,0,8,3.6,8,8S388.4,328,384,328z"/>
<path style="fill:#BF9146;" d="M448,24v432c0,8.8-7.2,16-16,16H320V8h112C440.8,8,448,15.2,448,24z"/>
<path style="fill:#132C47;" d="M432,480H320c-4.4,0-8-3.6-8-8V8c0-4.4,3.6-8,8-8h112c13.2,0,24,10.8,24,24v432
	C456,469.2,445.2,480,432,480z M328,464h104c4.4,0,8-3.6,8-8V24c0-4.4-3.6-8-8-8H328V464z"/>
<path style="fill:#CFAC75;" d="M408,72v152c0,8.8-7.2,16-16,16h-40V56h40C400.8,56,408,63.2,408,72z"/>
<g>
	<path style="fill:#132C47;" d="M392,248h-40c-4.4,0-8-3.6-8-8V56c0-4.4,3.6-8,8-8h40c13.2,0,24,10.8,24,24v152
		C416,237.2,405.2,248,392,248z M360,232h32c4.4,0,8-3.6,8-8V72c0-4.4-3.6-8-8-8h-32V232z"/>
	<path style="fill:#132C47;" d="M400,296h-48c-4.4,0-8-3.6-8-8s3.6-8,8-8h48c4.4,0,8,3.6,8,8S404.4,296,400,296z"/>
	<path style="fill:#132C47;" d="M400,360h-48c-4.4,0-8-3.6-8-8s3.6-8,8-8h48c4.4,0,8,3.6,8,8S404.4,360,400,360z"/>
	<path style="fill:#132C47;" d="M384,392h-32c-4.4,0-8-3.6-8-8s3.6-8,8-8h32c4.4,0,8,3.6,8,8S388.4,392,384,392z"/>
</g>
<path style="fill:#FCB23C;" d="M352,40v400c0,17.7-14.3,32-32,32H48c-8.8,0-16-7.2-16-16V24c0-8.8,7.2-16,16-16h272
	C337.7,8,352,22.3,352,40z"/>
<path style="fill:#132C47;" d="M320,480H48c-13.2,0-24-10.8-24-24V24C24,10.8,34.8,0,48,0h272c22.1,0,40,17.9,40,40v400
	C360,462.1,342.1,480,320,480z M48,16c-4.4,0-8,3.6-8,8v432c0,4.4,3.6,8,8,8h272c13.2,0,24-10.8,24-24V40c0-13.2-10.8-24-24-24H48z"
	/>
<path style="fill:#FDD18A;" d="M304,87.6v304.8c-1.3-0.2-2.6-0.4-4-0.4c-15.4,0-28,12.6-28,28c0,1.4,0.2,2.7,0.4,4H111.6
	c0.2-1.3,0.4-2.6,0.4-4c0-15.4-12.6-28-28-28c-1.4,0-2.7,0.2-4,0.4V87.6c1.3,0.2,2.6,0.4,4,0.4c15.4,0,28-12.6,28-28
	c0-1.4-0.2-2.7-0.4-4h160.8c-0.2,1.3-0.4,2.6-0.4,4c0,15.4,12.6,28,28,28C301.4,88,302.7,87.8,304,87.6z"/>
<g>
	<path style="fill:#132C47;" d="M272.4,432L272.4,432H111.6c-2.3,0-4.5-1-6-2.7s-2.2-4-1.9-6.3c0-0.3,0.1-0.6,0.1-1
		c0.1-0.8,0.2-1.5,0.2-2c0-11-9-20-20-20c-0.5,0-1.3,0.1-2,0.2c-0.3,0-0.6,0.1-1,0.1c-2.3,0.3-4.6-0.4-6.3-1.9
		c-1.7-1.5-2.7-3.7-2.7-6V87.6c0-2.3,1-4.5,2.7-6s4-2.2,6.3-1.9c0.3,0,0.6,0.1,1,0.1c0.8,0.1,1.5,0.2,2,0.2c11,0,20-9,20-20
		c0-0.5-0.1-1.3-0.2-2c0-0.3-0.1-0.6-0.1-1c-0.3-2.3,0.4-4.6,1.9-6.3c1.5-1.7,3.7-2.7,6-2.7h160.8c2.3,0,4.5,1,6,2.7
		c1.5,1.7,2.2,4,1.9,6.3c0,0.3-0.1,0.6-0.1,1c-0.1,0.8-0.2,1.5-0.2,2c0,11,9,20,20,20c0.5,0,1.3-0.1,2-0.2c0.3,0,0.7-0.1,1-0.1
		c2.3-0.3,4.6,0.4,6.3,1.9c1.7,1.5,2.7,3.7,2.7,6v304.8c0,2.3-1,4.5-2.7,6s-4,2.2-6.3,1.9c-0.3,0-0.6-0.1-1-0.1
		c-0.8-0.1-1.5-0.2-2-0.2c-11,0-20,9-20,20c0,0.5,0.1,1.3,0.2,2c0,0.1,0,0.2,0,0.3c0.1,0.5,0.2,1.1,0.2,1.6
		C280.4,428.4,276.8,432,272.4,432z M119.8,416h144.4c1.9-16.7,15.1-29.9,31.8-31.8V95.8c-16.7-1.9-29.9-15.1-31.8-31.8H119.8
		c-1.9,16.7-15.1,29.9-31.8,31.8v288.4C104.7,386.1,117.9,399.3,119.8,416z"/>
	<path style="fill:#132C47;" d="M256,304H120c-4.4,0-8-3.6-8-8s3.6-8,8-8h136c4.4,0,8,3.6,8,8S260.4,304,256,304z"/>
	<path style="fill:#132C47;" d="M160,336h-40c-4.4,0-8-3.6-8-8s3.6-8,8-8h40c4.4,0,8,3.6,8,8S164.4,336,160,336z"/>
	<path style="fill:#132C47;" d="M256,336h-64c-4.4,0-8-3.6-8-8s3.6-8,8-8h64c4.4,0,8,3.6,8,8S260.4,336,256,336z"/>
	<path style="fill:#132C47;" d="M256,368h-40c-4.4,0-8-3.6-8-8s3.6-8,8-8h40c4.4,0,8,3.6,8,8S260.4,368,256,368z"/>
	<path style="fill:#132C47;" d="M184,368h-64c-4.4,0-8-3.6-8-8s3.6-8,8-8h64c4.4,0,8,3.6,8,8S188.4,368,184,368z"/>
	<path style="fill:#132C47;" d="M128,160c-4.4,0-8-3.6-8-8v-16c0-4.4,3.6-8,8-8s8,3.6,8,8v16C136,156.4,132.4,160,128,160z"/>
</g>
<circle style="fill:#FCB23C;" cx="192" cy="168" r="40"/>
<g>
	<path style="fill:#132C47;" d="M192,216c-26.5,0-48-21.5-48-48s21.5-48,48-48s48,21.5,48,48S218.5,216,192,216z M192,136
		c-17.6,0-32,14.4-32,32s14.4,32,32,32s32-14.4,32-32S209.6,136,192,136z"/>
	<path style="fill:#132C47;" d="M192,248c-39.7,0-72-32.3-72-72c0-4.4,3.6-8,8-8s8,3.6,8,8c0,30.9,25.1,56,56,56s56-25.1,56-56
		c0-4.4,3.6-8,8-8s8,3.6,8,8C264,215.7,231.7,248,192,248z"/>
	<path style="fill:#132C47;" d="M256,160c-4.4,0-8-3.6-8-8v-16c0-4.4,3.6-8,8-8s8,3.6,8,8v16C264,156.4,260.4,160,256,160z"/>
</g>
</svg>